<svg xmlns="http://www.w3.org/2000/svg" xmlns:xlink="http://www.w3.org/1999/xlink" version="1.1" x="0px" y="0px" viewBox="0 0 96 120" enable-background="new 0 0 96 96" xml:space="preserve"><g><path fill="#000000" d="M9,68H5c-2.757,0-5-2.243-5-5V41c0-2.757,2.243-5,5-5h4c2.757,0,5,2.243,5,5v22C14,65.757,11.757,68,9,68z    M5,40c-0.552,0-1,0.449-1,1v22c0,0.552,0.448,1,1,1h4c0.552,0,1-0.448,1-1V41c0-0.551-0.448-1-1-1H5z"/></g><g><path fill="#000000" d="M19,77h-4c-2.757,0-5-2.243-5-5V32c0-2.757,2.243-5,5-5h4c2.757,0,5,2.243,5,5v40   C24,74.757,21.757,77,19,77z M15,31c-0.552,0-1,0.449-1,1v40c0,0.552,0.448,1,1,1h4c0.552,0,1-0.448,1-1V32c0-0.551-0.448-1-1-1H15   z"/></g><g><path fill="#000000" d="M29,83.572h-4c-2.757,0-5-2.243-5-5V25.427c0-2.757,2.243-5,5-5h4c2.757,0,5,2.243,5,5v53.145   C34,81.329,31.757,83.572,29,83.572z M25,24.427c-0.552,0-1,0.449-1,1v53.145c0,0.552,0.448,1,1,1h4c0.552,0,1-0.448,1-1V25.427   c0-0.551-0.448-1-1-1H25z"/></g><g><path fill="#000000" d="M91,68h-4c-2.757,0-5-2.243-5-5V41c0-2.757,2.243-5,5-5h4c2.757,0,5,2.243,5,5v22   C96,65.757,93.757,68,91,68z M87,40c-0.552,0-1,0.449-1,1v22c0,0.552,0.448,1,1,1h4c0.552,0,1-0.448,1-1V41c0-0.551-0.448-1-1-1H87   z"/></g><g><path fill="#000000" d="M81,77h-4c-2.757,0-5-2.243-5-5V32c0-2.757,2.243-5,5-5h4c2.757,0,5,2.243,5,5v40   C86,74.757,83.757,77,81,77z M77,31c-0.552,0-1,0.449-1,1v40c0,0.552,0.448,1,1,1h4c0.552,0,1-0.448,1-1V32c0-0.551-0.448-1-1-1H77   z"/></g><g><path fill="#000000" d="M71,83.572h-4c-2.757,0-5-2.243-5-5V25.427c0-2.757,2.243-5,5-5h4c2.757,0,5,2.243,5,5v53.145   C76,81.329,73.757,83.572,71,83.572z M67,24.427c-0.552,0-1,0.449-1,1v53.145c0,0.552,0.448,1,1,1h4c0.552,0,1-0.448,1-1V25.427   c0-0.551-0.448-1-1-1H67z"/></g><g><path fill="#000000" d="M66,60H30V44h36V60z M34,56h28v-8H34V56z"/></g><text x="0" y="111" fill="#000000" font-size="5px" font-weight="bold" font-family="'Helvetica Neue', Helvetica, Arial-Unicode, Arial, Sans-serif">Created by Golden Roof</text><text x="0" y="116" fill="#000000" font-size="5px" font-weight="bold" font-family="'Helvetica Neue', Helvetica, Arial-Unicode, Arial, Sans-serif">from the Noun Project</text></svg>