<svg xmlns="http://www.w3.org/2000/svg" xmlns:xlink="http://www.w3.org/1999/xlink" version="1.1" x="0px" y="0px" viewBox="0 0 100 125" enable-background="new 0 0 100 100" xml:space="preserve"><g><path d="M86.279,36.463c-0.712-0.594-1.738-0.618-2.479-0.063l-4,3c-0.044,0.033-0.087,0.068-0.129,0.105L71.239,47H58.665   c3.57-2.751,5.897-7.14,5.897-12.093c0-8.316-6.533-15.082-14.563-15.082c-8.031,0-14.564,6.766-14.564,15.082   c0,4.953,2.327,9.341,5.897,12.093H28.685c-0.107,0-0.214,0.009-0.319,0.026l-18.537,3c-0.93,0.15-1.629,0.929-1.678,1.87   c-0.049,0.94,0.564,1.788,1.474,2.035l18.434,5C28.229,58.977,28.405,59,28.582,59h6.22l0.44,14.561   c0.039,1.277,0.318,2.496,0.774,3.628c0.021,0.223,0.072,0.446,0.173,0.661l9,19.189c0.334,0.713,1.047,1.15,1.81,1.15   c0.144,0,0.29-0.016,0.436-0.048C48.35,97.938,49,97.126,49,96.189V84h2v12.189c0,0.937,0.65,1.748,1.565,1.952   c0.146,0.032,0.291,0.048,0.436,0.048c0.762,0,1.476-0.438,1.81-1.15l9-19.189c0.101-0.215,0.152-0.438,0.173-0.662   c0.456-1.132,0.735-2.35,0.773-3.627L65.197,59h6.7c0.536,0,1.05-0.215,1.426-0.598l7.394-7.516   c0.148-0.15,0.271-0.323,0.365-0.512l5.709-11.484C87.203,38.061,86.992,37.056,86.279,36.463z M53.996,80h-7.992   c-3.619,0-6.653-2.943-6.763-6.561l-0.484-16c-0.052-1.716,0.57-3.331,1.752-4.55c1.182-1.219,2.779-1.89,4.495-1.89h9.992   c1.716,0,3.312,0.671,4.494,1.89c1.183,1.219,1.805,2.834,1.753,4.55l-0.484,16C60.649,77.057,57.615,80,53.996,80z M39.436,34.907   c0-6.111,4.739-11.082,10.564-11.082c5.825,0,10.563,4.971,10.563,11.082S55.824,45.989,50,45.989   C44.174,45.989,39.436,41.018,39.436,34.907z M19.611,52.494L28.846,51h8.025c-0.915,1.188-1.542,2.548-1.862,4h-6.16   L19.611,52.494z M43.324,83.642c0.545,0.144,1.103,0.253,1.676,0.308v3.266L43.324,83.642z M55,83.949   c0.573-0.055,1.131-0.164,1.676-0.308L55,87.215V83.949z M77.642,48.309L71.06,55h-6.068c-0.32-1.452-0.947-2.812-1.862-4H72   c0.49,0,0.963-0.18,1.329-0.505l5.78-5.138L77.642,48.309z"/><path d="M50,44c4.732,0,7.091-2.927,8.358-4.499l0.191-0.237c0.698-0.855,0.57-2.116-0.285-2.814   c-0.857-0.698-2.115-0.57-2.814,0.286l-0.206,0.255C54.163,38.332,52.819,40,50,40c-2.817,0-4.162-1.667-5.242-3.007l-0.208-0.258   c-0.699-0.855-1.959-0.982-2.814-0.284c-0.855,0.699-0.982,1.959-0.284,2.814l0.193,0.239C42.911,41.075,45.27,44,50,44z"/><path d="M84.926,23.276c-2.482,0-4.502,2.02-4.502,4.502s2.02,4.502,4.502,4.502s4.502-2.02,4.502-4.502   S87.408,23.276,84.926,23.276z M84.926,28.28c-0.276,0-0.502-0.225-0.502-0.502s0.226-0.502,0.502-0.502s0.502,0.225,0.502,0.502   S85.202,28.28,84.926,28.28z"/><path d="M12.841,47.5c2.482,0,4.502-2.02,4.502-4.502s-2.02-4.502-4.502-4.502s-4.502,2.02-4.502,4.502S10.358,47.5,12.841,47.5z    M12.841,42.496c0.277,0,0.502,0.225,0.502,0.502S13.118,43.5,12.841,43.5s-0.502-0.225-0.502-0.502S12.564,42.496,12.841,42.496z"/><path d="M13.425,36.851c0.157,0.038,0.314,0.056,0.468,0.056c0.903,0,1.723-0.617,1.943-1.534   c2.467-10.274,9.139-18.583,17.94-23.309c0.758,0.581,1.694,0.94,2.721,0.94c2.255,0,4.11-1.671,4.435-3.837   c3.172-0.902,6.511-1.389,9.95-1.389c11.464,0,21.985,5.27,28.867,14.458c0.661,0.884,1.917,1.065,2.8,0.401   c0.884-0.662,1.063-1.916,0.401-2.8C75.307,9.632,63.618,3.778,50.883,3.778c-3.864,0-7.614,0.552-11.174,1.578   C38.892,4.521,37.756,4,36.498,4c-2.474,0-4.486,2.007-4.5,4.478c-9.837,5.239-17.299,14.5-20.052,25.962   C11.689,35.513,12.351,36.593,13.425,36.851z"/></g><text x="0" y="115" fill="#000000" font-size="5px" font-weight="bold" font-family="'Helvetica Neue', Helvetica, Arial-Unicode, Arial, Sans-serif">Created by Phil Laver</text><text x="0" y="120" fill="#000000" font-size="5px" font-weight="bold" font-family="'Helvetica Neue', Helvetica, Arial-Unicode, Arial, Sans-serif">from the Noun Project</text></svg>