<svg xmlns="http://www.w3.org/2000/svg" xmlns:xlink="http://www.w3.org/1999/xlink" version="1.1" x="0px" y="0px" viewBox="0 0 60 75" style="enable-background:new 0 0 60 60;" xml:space="preserve"><g><g><path d="M54,12.5c-1.176,0-1.67,0.8-2.031,1.384c-0.121,0.198-0.246,0.4-0.404,0.603c-0.773-0.047-1.695-0.206-2.662-0.372    c-2.68-0.462-5.691-0.979-8.035,0.3c-2.85-0.813-7.348-0.896-9.869,0.813c-2.346-1.604-7.492-2.992-11.454-2.992    c-1.008,0-1.902,0.09-2.662,0.267c-8.048-0.004-14.387-0.37-15.435-0.896c-0.439-0.22-0.974-0.088-1.259,0.311    c-0.287,0.398-0.242,0.945,0.104,1.292c0.246,0.246,0.591,0.667,0.99,1.153c1.113,1.358,2.641,3.22,4.27,4.033    C5.691,18.464,5.845,18.5,6,18.5c1.124,0,1.477-0.116,2.243-0.84c1.839,0.652,3.829,0.994,5.795,0.994    c2.188,0,4.192-0.438,5.252-1.118c0.621,0.147,1.376,0.714,2.11,1.264c0.861,0.647,1.748,1.312,2.723,1.578    c0.327,1.183,1.243,2.226,2.008,3.097c0.307,0.348,0.758,0.86,0.865,1.088c-0.041,0.379-0.438,0.807-0.822,0.912    c-0.926-0.42-1.857-0.634-2.775-0.634c-3.09,0-5.397,2.46-5.397,4.659c0,2.314,2.185,6,4,6c0.88,0,1.937,0,3-0.709v9.271    c-0.915,0.787-2.821,2.111-3.56,2.608c-0.364,0.245-0.525,0.7-0.396,1.121C21.171,48.213,21.56,48.5,22,48.5h7    c0.553,0,1-0.447,1-1c0-5.283,0.441-9.711,0.735-12.643C30.891,33.325,31,32.217,31,31.5c0-0.795,0.904-1.825,1.633-2.652    C33.396,27.979,34,27.291,34,26.5c0-1.127-0.041-2.568-0.182-4.043c2.973-0.266,7.027-1.839,8.541-2.957H54c2.314,0,6-2.184,6-4    C60,13.148,54.061,12.5,54,12.5z M31.131,27.525C30.181,28.605,29,29.951,29,31.5c0,0.617-0.111,1.739-0.254,3.16    c-0.278,2.783-0.689,6.9-0.741,11.84H25.14c0.627-0.473,1.217-0.943,1.566-1.293C26.894,45.02,27,44.766,27,44.5v-10    c0-0.844,0-2.414-1.354-2.414c-0.573,0-1.024,0.378-1.354,0.707c-0.688,0.688-1.335,0.706-2.215,0.707    c-0.573-0.287-2.078-2.461-2.078-4c0-0.938,1.29-2.659,3.397-2.659c0.694,0,1.42,0.187,2.154,0.554    C25.691,27.464,25.845,27.5,26,27.5c1.542,0,3-1.458,3-3c0-0.791-0.604-1.479-1.366-2.348C26.904,21.325,26,20.295,26,19.5    c0-0.553-0.447-1-1-1c-0.667,0-1.548-0.661-2.4-1.3c-1.113-0.836-2.267-1.7-3.6-1.7c-0.266,0-0.52,0.105-0.707,0.293    c-0.291,0.291-1.887,0.861-4.255,0.861c-1.351,0-3.429-0.188-5.667-1.084C8,15.423,7.576,15.509,7.292,15.793    c-0.332,0.331-0.645,0.645-0.738,0.688c-0.041,0.014-0.162,0.018-0.305,0.02c-0.895-0.52-1.839-1.525-2.654-2.484    C7.521,14.441,13.853,14.5,17,14.5c0.082,0,0.163-0.01,0.242-0.03c0.627-0.155,1.4-0.235,2.302-0.235    c4.188,0,9.41,1.636,10.749,2.974c1.032,1.032,1.7,4.647,1.708,9.224C31.896,26.652,31.439,27.176,31.131,27.525z M54,17.5H42    c-0.266,0-0.52,0.105-0.707,0.293c-0.691,0.691-4.852,2.465-7.732,2.686c-0.244-1.432-0.613-2.776-1.176-3.769    c1.955-1.101,5.785-1.101,8.299-0.262c0.295,0.101,0.615,0.056,0.871-0.116c1.73-1.155,4.533-0.674,7.008-0.248    C49.807,16.298,50.979,16.5,52,16.5c0.266,0,0.52-0.105,0.707-0.293c0.465-0.464,0.752-0.932,0.963-1.271    C53.773,14.77,53.914,14.54,54,14.5c0.748,0,3.055,0.628,3.857,1.121C57.281,16.282,55.383,17.5,54,17.5z"/></g></g><text x="0" y="75" fill="#000000" font-size="5px" font-weight="bold" font-family="'Helvetica Neue', Helvetica, Arial-Unicode, Arial, Sans-serif">Created by Norbert Kucsera</text><text x="0" y="80" fill="#000000" font-size="5px" font-weight="bold" font-family="'Helvetica Neue', Helvetica, Arial-Unicode, Arial, Sans-serif">from the Noun Project</text></svg>