<svg xmlns="http://www.w3.org/2000/svg" xmlns:xlink="http://www.w3.org/1999/xlink" version="1.1" x="0px" y="0px" viewBox="0 0 60 75" style="enable-background:new 0 0 60 60;" xml:space="preserve"><g><g><path d="M50.82,10.445C48.736,7.318,40.234,5.475,36.988,5.08V1c0-0.553-0.447-1-1-1h-8c-0.553,0-1,0.447-1,1    c0,0.798,0,1.402-0.46,2.011c-4.415,0.197-14.81,3.007-16.987,4.095c-0.404,0.203-0.6,0.654-0.508,1.099s0.495,0.771,0.947,0.797    c0.775,0.043,4.449,1.854,5.301,2.707c0.248,0.248,0.611,0.351,0.949,0.263c0.645-0.16,1.295-0.242,1.934-0.242    c2.288,0,4.088,1.063,4.93,1.805c0.593,2.199,1.709,4.625,2.932,7.184c-0.396,0.852-0.768,2.143-1.193,3.643    c-0.679,2.389-1.521,5.359-2.675,7.089c-1.354,2.032-1.144,4.737-0.974,6.913c0.102,1.281,0.205,2.605-0.09,3.193    c-0.391,0.782-1.33,1.178-2.16,1.523c-0.912,0.381-1.945,0.814-1.945,1.922c0,0.932,0.703,1.43,1.168,1.758    c0.563,0.396,0.832,0.616,0.832,1.242c0,0.484-0.32,1.34-0.604,2.094c-0.547,1.461-1.114,2.971-0.375,4.038    C18.409,54.708,19.075,55,19.989,55c2.211,0,5-9.467,5-11c0-1.389,2.756-9.407,4.835-13.641    c2.049,7.027,5.436,13.549,6.823,16.219c0.189,0.363,0.342,0.656,0.447,0.869c0.895,1.789,0.895,4.656,0.895,6.553    c0,1.708,0.893,6,3,6c0.938,0,1.689-0.3,2.236-0.891c1.121-1.213,0.961-3.258,0.832-4.901c-0.033-0.442-0.068-0.858-0.068-1.208    c0-1.889-0.947-7.361-3.293-9.707c-1.012-1.014-1.916-5.947-2.516-9.212c-0.525-2.873-0.871-4.677-1.297-5.528    c-0.318-0.638-0.871-3.093-1.406-5.467c-0.766-3.402-1.438-6.279-2.119-8.388C36.137,16.023,39.771,17,41.988,17    c3.492,0,7.803-3.368,8.895-5.553C51.043,11.126,51.02,10.744,50.82,10.445z M22.989,44c0,1.682-2.359,7.809-3.279,8.982    c-0.025-0.002-0.041-0.002-0.051,0c-0.081-0.371,0.359-1.547,0.6-2.188c0.359-0.958,0.73-1.947,0.73-2.796    c0-1.688-1.05-2.433-1.678-2.875c-0.01-0.007-0.021-0.015-0.029-0.021c0.141-0.063,0.293-0.127,0.425-0.184    c1.036-0.434,2.454-1.027,3.177-2.475c0.543-1.084,0.429-2.549,0.295-4.244c-0.153-1.965-0.328-4.19,0.644-5.646    c1.326-1.99,2.218-5.13,2.935-7.65c0.164-0.578,0.324-1.141,0.479-1.652c0.633,1.338,1.253,2.693,1.796,4.045    c0.02,0.085,0.042,0.169,0.063,0.254C27.053,30.706,22.989,41.636,22.989,44z M33.527,23.523c0.727,3.236,1.158,5.106,1.566,5.924    c0.32,0.641,0.727,2.854,1.117,4.994c0.947,5.16,1.721,8.916,3.07,10.266c1.68,1.68,2.707,6.323,2.707,8.293    c0,0.395,0.035,0.863,0.074,1.364c0.094,1.188,0.221,2.817-0.307,3.388c-0.09,0.096-0.248,0.221-0.631,0.244    c-0.416-0.418-1.137-2.314-1.137-3.996c0-2.085,0-5.236-1.105-7.447c-0.107-0.219-0.266-0.521-0.461-0.896    c-1.561-3-5.701-10.973-7.457-18.872c-0.012-0.054-0.027-0.104-0.047-0.154c-0.806-2.015-1.765-4.015-2.693-5.948    c-1.121-2.344-2.188-4.576-2.86-6.574c0.582-0.121,1.207-0.344,1.851-0.578c1.051-0.383,2.455-0.889,3.182-0.676    C31.426,14.2,32.734,20.001,33.527,23.523z M41.988,15c-2.721,0-8.502-1.917-10.293-3.707c-0.078-0.078-0.172-0.129-0.266-0.176    l0.006-0.012c-0.018-0.008-0.035-0.013-0.053-0.021c-0.016-0.007-0.033-0.013-0.051-0.019c-1.428-0.646-3.219,0.002-4.805,0.582    c-0.642,0.233-1.588,0.578-1.931,0.556c-1.213-1.163-3.578-2.478-6.434-2.478c-0.633,0-1.273,0.063-1.908,0.188    c-0.772-0.589-2.066-1.332-3.313-1.92C16.889,6.77,23.995,5,26.989,5c0.266,0,0.52-0.105,0.707-0.293    C28.612,3.791,28.879,2.854,28.957,2h6.032v4c0,0.553,0.447,1,1,1c1.861,0,10.34,1.799,12.768,4.092    C47.525,12.762,44.326,15,41.988,15z"/></g></g><text x="0" y="75" fill="#000000" font-size="5px" font-weight="bold" font-family="'Helvetica Neue', Helvetica, Arial-Unicode, Arial, Sans-serif">Created by Norbert Kucsera</text><text x="0" y="80" fill="#000000" font-size="5px" font-weight="bold" font-family="'Helvetica Neue', Helvetica, Arial-Unicode, Arial, Sans-serif">from the Noun Project</text></svg>